<?xml version="1.0"?>
<svg xmlns="http://www.w3.org/2000/svg" xmlns:xlink="http://www.w3.org/1999/xlink" xmlns:svgjs="http://svgjs.com/svgjs" version="1.1" width="512" height="512" x="0" y="0" viewBox="0 0 512.347 512.347" style="enable-background:new 0 0 512 512" xml:space="preserve"><g><g xmlns="http://www.w3.org/2000/svg"><path d="m345.766 494.811c-6.376 0-12.4-3.836-14.886-10.125-3.247-8.218.783-17.513 9.002-20.76.535-.211 1.063-.426 1.596-.648 8.149-3.417 17.524.424 20.939 8.574s-.424 17.525-8.574 20.94c-2.785 1.167-4.84 2.019-8.077 2.019z" fill="#edc54e" data-original="#000000" style=""/></g><g xmlns="http://www.w3.org/2000/svg"><path d="m20.405 156.63c54.978-130.364 204.969-191.391 335.359-136.404 92.851 39.158 151.85 127.517 156.312 224.232 3.99 86.007-36.196 170.806-109.444 221.734-7.252 5.044-17.225 3.253-22.271-4.003-5.045-7.255-3.252-17.226 4.003-22.271 64.069-44.546 99.234-118.781 95.746-193.982-7.03-152.443-163.486-256.191-308.22-197.322-124.289 50.553-177.301 198.804-110.918 317.184 47.708 85.102 142.092 125.995 231.185 111.451 8.723-1.426 16.945 4.492 18.369 13.213s-4.492 16.945-13.213 18.369c-199.751 32.61-354.489-168.244-276.908-352.201z" fill="#edc54e" data-original="#000000" style=""/></g><path xmlns="http://www.w3.org/2000/svg" d="m385.491 234.708c-6.151-6.342-16.283-6.498-22.625-.344l-4.115 3.991c-6.867-39.306-36.161-72.902-77.304-83.16-55.643-13.873-112.198 20.109-126.071 75.751-16.337 65.526 33.395 129.133 100.776 129.133 19.718 0 39.3-5.586 56.124-16.33 7.448-4.756 9.63-14.649 4.873-22.097-4.755-7.448-14.651-9.627-22.096-4.873-54.39 34.736-124.427-14.721-108.627-78.092 9.604-38.522 48.76-62.047 87.279-52.443 26.511 6.609 46.077 27.162 52.435 52.274l-4.641-4.784c-6.151-6.342-16.282-6.496-22.625-.344-6.343 6.153-6.496 16.282-.344 22.625l31.51 32.482c6.57 6.772 17.899 6.556 24.061-1.049l31.047-30.117c6.342-6.15 6.495-16.28.343-22.623z" fill="#edc54e" data-original="#000000" style=""/></g></svg>
