<?xml version="1.0"?>
<svg xmlns="http://www.w3.org/2000/svg" xmlns:xlink="http://www.w3.org/1999/xlink" xmlns:svgjs="http://svgjs.com/svgjs" version="1.1" width="512" height="512" x="0" y="0" viewBox="0 0 512 512" style="enable-background:new 0 0 512 512" xml:space="preserve"><g><path xmlns="http://www.w3.org/2000/svg" d="m256 0c-141.385 0-256 114.615-256 256s114.615 256 256 256 256-114.615 256-256-114.615-256-256-256zm128.86 257.226-31.047 30.117c-3.658 4.515-9.627 6.836-15.64 5.6-6.576-1.29-5.814-1.864-39.931-37.033-6.152-6.343-5.999-16.472.344-22.625 6.343-6.152 16.474-5.999 22.625.344l4.641 4.784c-6.338-25.035-25.845-45.645-52.435-52.274-38.52-9.604-77.675 13.921-87.279 52.443-15.8 63.372 54.238 112.827 108.627 78.092 7.444-4.754 17.341-2.575 22.096 4.873 4.757 7.447 2.575 17.34-4.873 22.097-16.823 10.744-36.405 16.33-56.124 16.33-67.551 0-117.063-63.805-100.776-129.133 13.874-55.642 70.429-89.624 126.071-75.751 41.143 10.258 70.437 43.854 77.304 83.16l4.115-3.991c6.342-6.154 16.474-5.999 22.625.344 6.153 6.341 6 16.47-.343 22.623z" fill="#edc54e" data-original="#000000" style=""/></g></svg>
